<?xml version="1.0" ?><svg viewBox="0 0 60 60" xmlns="http://www.w3.org/2000/svg"><title/><g data-name="Layer 1" id="Layer_1"><path d="M19,6a1,1,0,0,1,0-2c1.33105,0,1.62891-.48242,2.1709-1.35889C21.85938,1.52637,22.80273,0,26,0a1,1,0,0,1,0,2c-2.082,0-2.52051.71-3.12793,1.69287A4.03326,4.03326,0,0,1,19,6Z"/><path d="M32.09143,33H27.90857c-.2182,4.69446-.97229,10.399-3.60059,14H35.692C33.06372,43.399,32.30963,37.69446,32.09143,33Z"/><polygon points="37.787 49 35.173 49 39.303 53.818 44.361 51.921 37.787 49"/><rect height="2" width="16" x="22" y="56"/><path d="M40,57.55682l5.4355-2.03848A.87.87,0,0,0,46,54.70375V53.44336l-6,2.25Z"/><polygon points="36.827 54 32.541 49 27.459 49 23.173 54 36.827 54"/><path d="M14.5645,55.51835,20,57.55682V55.69336l-6-2.25v1.26039A.87.87,0,0,0,14.5645,55.51835Z"/><polygon points="22.213 49 15.639 51.921 20.697 53.818 24.827 49 22.213 49"/><path d="M27.999,29c-.00189.61542-.00879,1.29169-.02319,2h4.04834c-.0144-.70831-.0213-1.38458-.02319-2Z"/><path d="M23.24609,25.67432c.749,1.18311.66895,2.00146.3623,2.34863a.94272.94272,0,0,1-1.16113.08252,1.00012,1.00012,0,1,0-.89453,1.78906,3.32493,3.32493,0,0,0,1.48438.36084,2.72524,2.72524,0,0,0,2.07031-.90869,3.18811,3.18811,0,0,0,.6557-2.69629A3.45377,3.45377,0,0,0,27.04559,27h5.90906a3.43939,3.43939,0,0,0,1.24384-.332,3.18257,3.18257,0,0,0,.65991,2.67871,2.72524,2.72524,0,0,0,2.07031.90869,3.32493,3.32493,0,0,0,1.48438-.36084,1.00012,1.00012,0,0,0-.89453-1.78906.93984.93984,0,0,1-1.16113-.08252c-.30664-.34717-.38672-1.16553.3623-2.34863C44.70605,19.07129,51.001,6.96582,48.35645,3.25c-1.30469-1.8335-3.96777-1.52979-7.915.89844A.98494.98494,0,0,0,39.98364,5H19.98218a.98494.98494,0,0,0-.45776-.85156c-3.94629-2.42871-6.60938-2.731-7.915-.89844C8.96484,6.96582,15.25977,19.07129,23.24609,25.67432ZM46.72656,4.40967c1.42542,2.002-2.27014,10.53363-8.343,16.95306A55.11723,55.11723,0,0,0,41.95325,5.58368C44.84326,3.89288,46.32263,3.84265,46.72656,4.40967ZM26,11a.99974.99974,0,0,1,1,1c0,6.271,1.29,11,3,11s3-4.729,3-11a1,1,0,0,1,2,0c0,4.8446,1.28394,8.99683,2.31427,10.43872q-.70844.68738-1.45184,1.32562A10.95719,10.95719,0,0,1,34.15234,20.124C33.458,22.81348,32.21289,25,30,25s-3.458-2.18652-4.15234-4.876a10.89843,10.89843,0,0,1-1.72473,3.65729q-.74377-.63721-1.45172-1.3233C23.70392,21.0351,25,16.86743,25,12A.99974.99974,0,0,1,26,11ZM13.23926,4.40967c.40656-.5694,1.89612-.51666,4.8092,1.1947a54.92376,54.92376,0,0,0,3.59583,15.82611C15.53381,15.00354,11.8089,6.41864,13.23926,4.40967Z"/><path d="M40.96582,6a4.03326,4.03326,0,0,1-3.87207-2.30713C36.48633,2.71,36.04785,2,33.96582,2a1,1,0,0,1,0-2c3.19727,0,4.14063,1.52637,4.8291,2.64111C39.33691,3.51758,39.63477,4,40.96582,4a1,1,0,0,1,0,2Z"/></g></svg>