<?xml version="1.0" ?><svg viewBox="0 0 60 60" xmlns="http://www.w3.org/2000/svg"><title/><g data-name="Layer 1" id="Layer_1"><path d="M34.24609,7l1.06378-3.72543A1,1,0,0,0,34.34831,2H27.65169a1,1,0,0,0-.96157,1.27457L27.75391,7Z"/><path d="M30.0498,33.04639c2.809-1.34808,5.71454-2.73047,12.53442-2.27161a15.42565,15.42565,0,0,0-5.92212-3.83386A.99939.99939,0,0,1,36,26V12a.99974.99974,0,0,1,1-1,2,2,0,0,0,0-4h-.67383l-.36426,1.2749A1.00094,1.00094,0,0,1,35,9H27a1.00094,1.00094,0,0,1-.96191-.7251L25.67383,7H25a2,2,0,0,0,0,4,.99974.99974,0,0,1,1,1V26a.99985.99985,0,0,1-.66113.94092,15.42909,15.42909,0,0,0-8.86975,8.19879C24.23688,35.82727,27.07086,34.47717,30.0498,33.04639Z"/><path d="M44.31244,32.93365c-7.66388-.82208-10.45917.50592-13.39642,1.916a21.105,21.105,0,0,1-10.627,2.4751c-1.33252,0-2.84808-.08032-4.56146-.24786A16.80777,16.80777,0,0,0,15,42a16,16,0,0,0,32,0A16.31383,16.31383,0,0,0,44.31244,32.93365Zm-25.60449,14.038a.99958.99958,0,0,1-1.20605-.73779A18.05449,18.05449,0,0,1,16.99994,42a19.14888,19.14888,0,0,1,.11621-2.11133,1.0003,1.0003,0,0,1,1.98828.22168A17.059,17.059,0,0,0,18.99994,42a16.11089,16.11089,0,0,0,.44531,3.76514A.99957.99957,0,0,1,18.70795,46.97168Zm5.04,5.69189a1.00043,1.00043,0,0,1-1.41211.08447,17.09608,17.09608,0,0,1-2.0293-2.12549A.99973.99973,0,1,1,21.871,49.37744,15.08894,15.08894,0,0,0,23.664,51.252,1.00022,1.00022,0,0,1,23.748,52.66357Z"/></g></svg>