<?xml version="1.0" ?><svg viewBox="0 0 60 60" xmlns="http://www.w3.org/2000/svg"><title/><g data-name="Layer 1" id="Layer_1"><path d="M5.90784,52.50623,7.5,50.91406,9.08594,52.5,7.49377,54.09216A3.99876,3.99876,0,0,0,5.90784,52.50623ZM8.91406,49.5,10.5,47.91406,12.08594,49.5,10.5,51.08594ZM4,58a2,2,0,1,1,2-2A2.00229,2.00229,0,0,1,4,58Zm9.5-9.91406L11.91406,46.5,13.5,44.91406,15.08594,46.5Zm8.14645,2.14645L9.76762,38.35355a.5.5,0,0,1,0-.70711l.87883-.87883a.5.5,0,0,1,.70711,0L23.23238,48.64645a.5.5,0,0,1,0,.70711l-.87883.87883A.5.5,0,0,1,21.64645,50.23238ZM58,4.58594l-38,38L17.41406,40l38-38H57.5a.5.5,0,0,1,.5.5Z"/></g></svg>