<?xml version="1.0" ?><svg viewBox="0 0 60 60" xmlns="http://www.w3.org/2000/svg"><title/><g id="text"><text font-family="MyriadPro-Regular, Myriad Pro" font-size="9" transform="translate(3.73291 67.39014)"><tspan letter-spacing="0.00499em"/><tspan x="5.85889" y="0"/><tspan letter-spacing="-0.02599em" x="36.91699" y="0"/><tspan x="41.06592" y="0"/><tspan letter-spacing="-0.00998em" x="43.17188" y="0"/><tspan x="46.0249" y="0"/></text></g><g data-name="Layer 1" id="Layer_1"><path d="M29,20h2a5.412,5.412,0,0,0-1-3.499A5.412,5.412,0,0,0,29,20Z"/><path d="M27,20a7.17088,7.17088,0,0,1,2.29382-5.70789.99538.99538,0,0,1,1.41235,0A7.17088,7.17088,0,0,1,33,20h2.25726c2.13562-7.08624-.4115-10.64209-5.20795-16.24561a12.41788,12.41788,0,0,1-3.39355,8.09375C25.01385,13.838,23.705,15.43658,24.78064,20Z"/><path d="M38.52881,56.655A2.62388,2.62388,0,0,0,36,55H32a1,1,0,0,1-1-1V51a1,1,0,0,0,0-2V47a1,1,0,0,0,0-2V42a1.003,1.003,0,0,1,1.00342-1,5.07472,5.07472,0,0,0,3.90674-1.397c2.085-2.21484,1.80615-6.83252,1.56055-10.90625a29.37264,29.37264,0,0,1-.017-5.5954A.94277.94277,0,0,0,36.53076,22H23.46924a.94277.94277,0,0,0-.92291,1.10138,29.37264,29.37264,0,0,1-.017,5.5954c-.24561,4.07373-.52441,8.69141,1.56055,10.90625A5.07472,5.07472,0,0,0,27.99658,41,1.003,1.003,0,0,1,29,42v3a1,1,0,0,0,0,2v2a1,1,0,0,0,0,2v3a1,1,0,0,1-1,1H24a2.62388,2.62388,0,0,0-2.52881,1.655A.94622.94622,0,0,0,22.326,58H37.674A.94622.94622,0,0,0,38.52881,56.655Z"/></g></svg>