<?xml version="1.0" ?><svg viewBox="0 0 60 60" xmlns="http://www.w3.org/2000/svg"><title/><g id="text"><text font-family="MyriadPro-Regular, Myriad Pro" font-size="9" transform="translate(8.53906 -49.60986)"><tspan letter-spacing="-0.00298em"/><tspan letter-spacing="0.02501em" x="5.19287" y="0"/><tspan letter-spacing="-0.00602em" x="8.36084" y="0"/><tspan x="12.54541" y="0"/></text></g><g data-name="Layer 1" id="Layer_1"><path d="M58.28125,30.87793c-1.15863-1.80365-4.41211-5.30023-11.32043-3.15936l.839-1.119A.99955.99955,0,0,0,47,25H13a.99955.99955,0,0,0-.7998,1.59961l.83917,1.1192c-6.90784-2.14026-10.162,1.35547-11.32062,3.15912C-1.05469,35.19629-.26758,41.79785,3.37012,44.72852a6.67192,6.67192,0,0,0,4.23047,1.45605c1.85541,0,4.22668-.689,7.10144-2.84338-1.61145,5.09491-1.47559,8.60126.46838,9.64124a2.14219,2.14219,0,0,0,1.02295.25879A3.3376,3.3376,0,0,0,18.832,51.55469,1,1,0,1,0,17.168,50.44531c-.42383.63672-.89111.86035-1.05371.77441-.42035-.22485-1.31128-2.3432.94147-8.59564,1.7,4.293,4.414,7.21741,8.03467,8.54761a3.04758,3.04758,0,0,0-.04169,3.5473,24.69366,24.69366,0,0,0-6.60339,3.449A1,1,0,0,0,19,60H41a1,1,0,0,0,.55469-1.832,24.716,24.716,0,0,0-6.59351-3.44635A3.047,3.047,0,0,0,34.9,51.1759c3.62573-1.32849,6.34277-4.25488,8.04431-8.55182,2.25275,6.25244,1.36182,8.37079.94147,8.59564-.16113.08594-.62988-.1377-1.05371-.77441A1,1,0,0,0,41.168,51.55469a3.33829,3.33829,0,0,0,2.63867,1.68652,2.14219,2.14219,0,0,0,1.02295-.25879c1.94391-1.03992,2.07977-4.5462.46851-9.64081,2.87482,2.1546,5.24585,2.843,7.10132,2.843a6.67878,6.67878,0,0,0,4.23047-1.45605C60.26758,41.79785,61.05469,35.19629,58.28125,30.87793ZM21.84619,39.95215a.9998.9998,0,0,1-1.26172-.63867q-.16846-.5127-.31836-1.04395a1,1,0,1,1,1.9248-.543c.09229.32715.19043.64746.29395.96387A1.00008,1.00008,0,0,1,21.84619,39.95215Zm3.49609,7.001a14.37064,14.37064,0,0,1-2.85791-3.43262.99995.99995,0,0,1,1.71-1.03711,12.36023,12.36023,0,0,0,2.45557,2.95605,1.00013,1.00013,0,0,1-1.30762,1.51367ZM32.6037,54.206a16.55742,16.55742,0,0,0-5.18652-.0033,1.27789,1.27789,0,0,1-.02771-2.44336,14.26744,14.26744,0,0,0,5.2005.00342A1.27779,1.27779,0,0,1,32.6037,54.206ZM55.37549,43.1709c-2.69495,2.17249-6.84772.83643-11.42584-3.64453A35.84014,35.84014,0,0,0,44.90363,33H15.09644a35.84113,35.84113,0,0,0,.95392,6.52637c-4.57727,4.48077-8.73187,5.81409-11.42584,3.64453C1.82275,40.91406,1.2168,35.36035,3.40137,31.959,5.56628,28.58881,9.69275,28.49426,15.02362,31c.00153.12354-.00238-.12262,0,0H44.97638c.00238-.12268-.00153.1236,0,0,5.33258-2.50751,9.45636-2.41217,11.62225.959C58.7832,35.36035,58.17725,40.91406,55.37549,43.1709Z"/></g></svg>