<?xml version="1.0" ?><svg viewBox="0 0 60 60" xmlns="http://www.w3.org/2000/svg"><title/><g data-name="Layer 1" id="Layer_1"><polygon points="23.588 30.174 29.826 36.412 40.514 24 30.758 24 23.588 30.174"/><path d="M19.5498,31.27637a43.85169,43.85169,0,0,0-4.2168,5.22412c-.42456.57507-.87347,1.17957-1.333,1.7926v11.4892c3.40924-4.1521,7.03528-5.82,10.11621-7.22516a21.656,21.656,0,0,0,3.94238-2.11328,2.7927,2.7927,0,0,0,.32119-.27925,1.74253,1.74253,0,0,0-.06658-2.43732l-6.35912-6.35912a1.735,1.735,0,0,0-2.38845-.10667Z"/><path d="M6.57031,46.62061A7.47171,7.47171,0,0,1,3.86523,48.1543C1.22852,48.89355,0,52.07959,0,54a1.00013,1.00013,0,0,0,.293.707l5,5a.99964.99964,0,0,0,1.41406,0l2.40723-2.40771A6.07771,6.07771,0,0,0,10.2627,55.6792,34.25,34.25,0,0,1,12,52.56122V40.87909A40.07349,40.07349,0,0,1,6.57031,46.62061Z"/><path d="M59.707.293A.99838.99838,0,0,0,58.34766.24219L33.08051,22h9.1557L59.75781,1.65234A.99942.99942,0,0,0,59.707.293Z"/></g></svg>