<?xml version="1.0" ?><svg viewBox="0 0 60 60" xmlns="http://www.w3.org/2000/svg"><title/><g id="text"><text font-family="MyriadPro-Regular, Myriad Pro" font-size="9" transform="translate(2.50439 -49.60986)"><tspan letter-spacing="-0.03299em"/><tspan x="7.31689" y="0"/><tspan letter-spacing="-0.00602em" x="26.36035" y="0"/><tspan x="30.54492" y="0"/><tspan letter-spacing="-0.03098em" x="36.0166" y="0"/><tspan x="40.12061" y="0"/><tspan letter-spacing="-0.00998em" x="45.06152" y="0"/><tspan x="47.91455" y="0"/><tspan letter-spacing="-0.00298em" x="14.45801" y="10.7998"/><tspan x="19.93896" y="10.7998"/></text></g><g data-name="Layer 1" id="Layer_1"><path d="M38.98535,22.72559c-1.42285,5.458-2.76562,10.61328,2.38965,16.23633a4.13325,4.13325,0,0,1,.98022,1.86121,2.216,2.216,0,0,0,.65747-.71863,1.70291,1.70291,0,0,0,.11816-1.60547c-3.75488-5.59082-2.39648-10.91309-1.083-16.0625,1.28711-5.043,2.50293-9.80762-.87988-14.88184a12.25323,12.25323,0,0,0-3.69141-3.77625L37.95117,6.627C41.68164,12.374,40.31055,17.63574,38.98535,22.72559Z"/><path d="M37.74316,19.43292C35.0708,21.78131,32.0271,21.958,29.67725,21.9928c-1.24438,3.048-3.8241,5.68683-6.34229,8.23865-2.9668,3.00684-5.76953,5.84766-5.55957,8.66992.12427,1.66895,1.30127,3.33881,3.572,5.09863h17.373a4.806,4.806,0,0,0,1.28247-1.0166,1.99338,1.99338,0,0,0-.10156-2.66992c-5.8916-6.4248-4.3457-12.35645-2.85156-18.09277C37.29395,21.28314,37.53516,20.35547,37.74316,19.43292Z"/><path d="M17.83008,19.93555A6.64511,6.64511,0,0,0,21.293,18.293.99989.99989,0,0,1,22.707,19.707a8.03,8.03,0,0,1-2.44763,1.58362,1.87252,1.87252,0,0,0,.848.82068c.9209.377,2.39648-.27832,3.8252-.9082A10.66492,10.66492,0,0,1,29,20h.11035c2.87976.00775,6.54858-.002,9.217-4.38379A12.509,12.509,0,0,0,36.168,7.55469a1.01174,1.01174,0,0,1-.1543-.39062L35.46,3.84375l-1.60254,2.6709a1,1,0,1,1-1.71484-1.0293l.08643-.1441c-3.68225.96149-5.656,3.353-7.72412,5.86871-1.65332,2.00977-3.36328,4.08887-5.96,5.19141a1.668,1.668,0,0,0-.80859,1.33984,5.02387,5.02387,0,0,0,.082,2.1377ZM27.168,11.44531c1.834-2.751,3.97656-2.13867,5.39258-1.7334A5.59559,5.59559,0,0,0,34,10a1,1,0,0,1,0,2,7.1389,7.1389,0,0,1-1.98926-.36523L32,11.63177V12a1,1,0,0,1-2,0v-.54071a2.65619,2.65619,0,0,0-1.168,1.0954A1,1,0,1,1,27.168,11.44531Z"/><path d="M42.35339,54c.65759-1.59009.048-1.93713-1.38074-2.70605-1.48376-.79773-3.63794-1.968-3.199-5.29395H22.22632c.439,3.32593-1.71521,4.49622-3.199,5.29395-1.42871.76892-2.03833,1.116-1.38074,2.70605Z"/><path d="M16,56v1a1,1,0,0,0,1,1H43a1,1,0,0,0,1-1V56Z"/></g></svg>